<?xml version="1.0" encoding="UTF-8"?>
<svg id="Layer_2" data-name="Layer 2" xmlns="http://www.w3.org/2000/svg" viewBox="0 0 138.41 114.26">
  <defs>
    <style>
      .cls-1 {
        fill: #2bb673;
      }
    </style>
  </defs>
  <g id="Black">
    <g>
      <path class="cls-1" d="M25.58,95.46c-3.97,2.22-5.39,7.23-3.17,11.2,2.22,3.97,7.23,5.39,11.2,3.17,3.97-2.22,5.39-7.23,3.17-11.2-2.22-3.97-7.23-5.39-11.2-3.17Z"/>
      <path class="cls-1" d="M3.38,75.69c-3.17,1.77-4.31,5.78-2.54,8.96,1.77,3.17,5.78,4.31,8.96,2.54,3.17-1.77,4.31-5.78,2.54-8.96-1.77-3.17-5.78-4.31-8.96-2.54Z"/>
      <path class="cls-1" d="M26.86,41.54c-2.77-4.95-9.02-6.73-13.98-3.96-4.95,2.77-6.73,9.02-3.96,13.98,2.77,4.95,9.02,6.73,13.98,3.96,4.95-2.77,6.73-9.02,3.96-13.98Z"/>
      <path class="cls-1" d="M66.24,31.43c7.78-4.34,10.56-14.17,6.22-21.95-4.34-7.78-14.17-10.56-21.95-6.22-7.78,4.34-10.56,14.17-6.22,21.95,4.34,7.78,14.17,10.56,21.95,6.22Z"/>
      <path class="cls-1" d="M135.37,12.25c-6.44-11.53-21-15.65-32.52-9.21-11.53,6.44-15.65,21-9.21,32.52,6.44,11.53,21,15.65,32.52,9.21,11.53-6.44,15.65-21,9.21-32.52Z"/>
      <path class="cls-1" d="M57.2,89.59c-6.35,3.55-8.62,11.57-5.08,17.92,3.55,6.35,11.57,8.62,17.92,5.08s8.62-11.57,5.08-17.92c-3.55-6.35-11.57-8.62-17.92-5.08Z"/>
      <path class="cls-1" d="M92.6,61.48c-9.43,5.27-12.8,17.18-7.54,26.61,5.27,9.43,17.18,12.8,26.61,7.54,9.43-5.27,12.8-17.18,7.54-26.61-5.27-9.43-17.18-12.8-26.61-7.54Z"/>
    </g>
  </g>
</svg>